<svg width="78" height="74" viewBox="0 0 78 74" fill="none" xmlns="http://www.w3.org/2000/svg">
<path d="M1.46447 33.4645C-0.488156 35.4171 -0.488155 38.5829 1.46447 40.5355L33.2843 72.3553C35.2369 74.308 38.4027 74.308 40.3553 72.3553C42.308 70.4027 42.308 67.2369 40.3553 65.2843L12.0711 37L40.3553 8.71573C42.308 6.76311 42.308 3.59729 40.3553 1.64466C38.4027 -0.307957 35.2369 -0.307957 33.2843 1.64466L1.46447 33.4645ZM74.35 32C71.5886 32 69.35 34.2386 69.35 37C69.35 39.7614 71.5886 42 74.35 42L74.35 32ZM59.75 42C62.5114 42 64.75 39.7614 64.75 37C64.75 34.2386 62.5114 32 59.75 32L59.75 42ZM37.85 32C35.0886 32 32.85 34.2386 32.85 37C32.85 39.7614 35.0886 42 37.85 42L37.85 32ZM8.64999 42C11.4114 42 13.65 39.7614 13.65 37C13.65 34.2386 11.4114 32 8.64999 32L8.64999 42ZM78 32L74.35 32L74.35 42L78 42L78 32ZM59.75 32L37.85 32L37.85 42L59.75 42L59.75 32ZM8.64999 32L5 32L5 42L8.64999 42L8.64999 32Z" fill="black"/>
</svg>
