<svg width="78" height="74" viewBox="0 0 78 74" fill="none" xmlns="http://www.w3.org/2000/svg">
<path d="M76.5355 40.5355C78.4882 38.5829 78.4882 35.4171 76.5355 33.4645L44.7157 1.64466C42.7631 -0.307961 39.5973 -0.307961 37.6447 1.64466C35.692 3.59728 35.692 6.76311 37.6447 8.71573L65.9289 37L37.6447 65.2843C35.692 67.2369 35.692 70.4027 37.6447 72.3553C39.5973 74.308 42.7631 74.308 44.7157 72.3553L76.5355 40.5355ZM3.65 42C6.41142 42 8.65 39.7614 8.65 37C8.65 34.2386 6.41142 32 3.65 32L3.65 42ZM18.25 32C15.4886 32 13.25 34.2386 13.25 37C13.25 39.7614 15.4886 42 18.25 42V32ZM40.15 42C42.9114 42 45.15 39.7614 45.15 37C45.15 34.2386 42.9114 32 40.15 32V42ZM69.35 32C66.5886 32 64.35 34.2386 64.35 37C64.35 39.7614 66.5886 42 69.35 42V32ZM0 42H3.65L3.65 32H0L0 42ZM18.25 42H40.15V32L18.25 32V42ZM69.35 42H73V32H69.35V42Z" fill="black"/>
</svg>
